# xmcd CD database file
#
# Track frame offsets:
#	180
#	19230
#	35922
#	56199
#
# Disc length: 1075 seconds
#
# Revision: 1
# Processed by: cddbd v1.5.1PL0 Copyright (c) Steve Scherf et al.
# Submitted via: CDex 1.51
#
DISCID=36043104
DTITLE=CHAMPAGNE and REEFER BLUES BAND - They never come back again
DYEAR=1995
DGENRE=Blues
TTITLE0=Hoochie Coochie Man
TTITLE1=Some kind of wonderful
TTITLE2=Have you ever loved a Woman
TTITLE3=Mustang Sally
EXTD=YEAR: 1995
EXTT0=
EXTT1=
EXTT2=
EXTT3=
PLAYORDER=
